<svg xmlns="http://www.w3.org/2000/svg" xmlns:xlink="http://www.w3.org/1999/xlink" width="500" zoomAndPan="magnify" viewBox="0 0 375 374.999991" height="500" preserveAspectRatio="xMidYMid meet" version="1.0"><defs><g/><clipPath id="1dc3aa5d53"><path d="M 157 208 L 195 208 L 195 234.695312 L 157 234.695312 Z M 157 208 " clip-rule="nonzero"/></clipPath><clipPath id="53b03273ed"><path d="M 141 105 L 260.574219 105 L 260.574219 234.695312 L 141 234.695312 Z M 141 105 " clip-rule="nonzero"/></clipPath><clipPath id="310300e2ac"><path d="M 170 75.695312 L 225 75.695312 L 225 121 L 170 121 Z M 170 75.695312 " clip-rule="nonzero"/></clipPath><clipPath id="c493986aad"><path d="M 114.324219 108 L 149 108 L 149 228 L 114.324219 228 Z M 114.324219 108 " clip-rule="nonzero"/></clipPath><clipPath id="2d58bf47de"><path d="M 117 245.199219 L 206 245.199219 L 206 337.449219 L 117 337.449219 Z M 117 245.199219 " clip-rule="nonzero"/></clipPath></defs><path fill="#274082" d="M 168.402344 193.234375 L 150.886719 182.421875 L 141.902344 191.4375 L 134.84375 226.894531 L 168.402344 193.234375 " fill-opacity="1" fill-rule="nonzero"/><g clip-path="url(#1dc3aa5d53)"><path fill="#274082" d="M 183.734375 208.613281 L 157.816406 234.605469 L 186.113281 234.605469 L 194.515625 226.179688 L 183.734375 208.613281 " fill-opacity="1" fill-rule="nonzero"/></g><g clip-path="url(#53b03273ed)"><path fill="#336dbf" d="M 221.972656 123.042969 C 219.316406 123.042969 217.160156 120.882812 217.160156 118.214844 C 217.160156 115.546875 219.316406 113.382812 221.972656 113.382812 C 224.632812 113.382812 226.789062 115.546875 226.789062 118.214844 C 226.789062 120.882812 224.632812 123.042969 221.972656 123.042969 Z M 172.207031 123.042969 C 169.546875 123.042969 167.390625 120.882812 167.390625 118.214844 C 167.390625 115.546875 169.546875 113.382812 172.207031 113.382812 C 174.867188 113.382812 177.023438 115.546875 177.023438 118.214844 C 177.023438 120.882812 174.867188 123.042969 172.207031 123.042969 Z M 260.21875 231.3125 L 240.566406 108.136719 C 240.3125 106.847656 239.183594 105.917969 237.871094 105.917969 L 156.308594 105.917969 C 155 105.917969 153.871094 106.847656 153.613281 108.136719 L 141.902344 191.4375 L 150.886719 182.421875 L 210.484375 166.40625 L 194.515625 226.179688 L 186.113281 234.605469 L 257.523438 234.605469 C 259.257812 234.605469 260.558594 233.019531 260.21875 231.3125 " fill-opacity="1" fill-rule="nonzero"/></g><g clip-path="url(#310300e2ac)"><path fill="#274082" d="M 221.976562 120.316406 C 220.816406 120.316406 219.878906 119.375 219.878906 118.214844 C 219.878906 106.664062 217.476562 96.847656 212.929688 89.824219 C 208.824219 83.480469 203.199219 79.992188 197.089844 79.992188 C 190.980469 79.992188 185.359375 83.480469 181.253906 89.824219 C 176.707031 96.847656 174.304688 106.664062 174.304688 118.214844 C 174.304688 119.375 173.363281 120.316406 172.207031 120.316406 C 171.050781 120.316406 170.113281 119.375 170.113281 118.214844 C 170.113281 105.851562 172.75 95.242188 177.738281 87.535156 C 182.640625 79.957031 189.515625 75.789062 197.089844 75.789062 C 204.667969 75.789062 211.539062 79.957031 216.445312 87.535156 C 221.433594 95.242188 224.070312 105.851562 224.070312 118.214844 C 224.070312 119.375 223.128906 120.316406 221.976562 120.316406 " fill-opacity="1" fill-rule="nonzero"/></g><g clip-path="url(#c493986aad)"><path fill="#274082" d="M 148.753906 108.136719 L 114.3125 224.863281 L 124.433594 221.609375 L 129.234375 227.636719 L 148.753906 108.136719 " fill-opacity="1" fill-rule="nonzero"/></g><g clip-path="url(#2d58bf47de)"><path fill="#222222" d="M 199.089844 303.425781 C 198.183594 301.890625 197.246094 300.300781 196.273438 298.746094 C 195.964844 298.253906 195.660156 297.738281 195.367188 297.242188 C 194.59375 295.925781 193.792969 294.566406 192.765625 293.351562 C 191.035156 291.304688 188.917969 290.101562 186.804688 289.964844 C 184.910156 289.84375 183.09375 290.691406 182.027344 292.039062 C 180.867188 290.398438 178.910156 289.320312 176.871094 289.355469 C 174.75 289.394531 172.757812 290.632812 171.6875 292.429688 C 170.996094 291.390625 170.023438 289.898438 168.9375 288.226562 C 169.332031 288.226562 169.722656 288.226562 170.105469 288.226562 C 170.925781 288.226562 171.71875 288.230469 172.480469 288.234375 C 180.53125 288.277344 185.390625 288.304688 188.4375 285.214844 C 189.957031 283.679688 190.914062 281.425781 191.460938 278.125 C 191.964844 275.070312 192.144531 271.070312 192.039062 265.15625 C 191.886719 256.761719 190.21875 251.542969 186.789062 248.734375 C 183.683594 246.1875 179.648438 245.988281 175.378906 245.777344 C 174.769531 245.746094 174.144531 245.714844 173.523438 245.675781 C 165.664062 245.195312 155.65625 245.414062 147.613281 245.589844 C 146.578125 245.609375 145.570312 245.632812 144.59375 245.652344 C 142.867188 245.6875 141.1875 245.6875 139.558594 245.683594 C 132.335938 245.675781 126.097656 245.664062 122.148438 249.09375 C 117.503906 253.132812 116.855469 257.015625 117.03125 268.273438 C 117.1875 278.195312 118.59375 283.332031 121.878906 286.011719 C 125.113281 288.644531 129.925781 288.628906 136.585938 288.609375 C 137.714844 288.605469 138.882812 288.601562 140.121094 288.609375 C 140.5 288.613281 140.898438 288.613281 141.320312 288.613281 C 145.070312 288.613281 150.359375 288.519531 155.558594 288.421875 C 157.636719 292.613281 159.960938 297.160156 162.097656 301.175781 C 159.554688 303.570312 158.242188 306.367188 158.191406 309.5 C 158.15625 311.859375 158.839844 314.320312 160.222656 316.808594 C 161.449219 318.972656 162.980469 320.894531 164.820312 322.570312 C 167.59375 325.105469 170.566406 326.679688 173.441406 328.199219 C 177.519531 330.355469 181.371094 332.390625 184.503906 337.003906 C 184.644531 337.21875 184.84375 337.351562 185.09375 337.402344 C 185.347656 337.453125 185.578125 337.40625 185.792969 337.261719 C 186.003906 337.113281 186.136719 336.914062 186.179688 336.660156 C 186.226562 336.410156 186.175781 336.175781 186.027344 335.964844 C 182.636719 330.976562 178.398438 328.734375 174.300781 326.570312 C 171.527344 325.105469 168.664062 323.589844 166.0625 321.210938 C 161.546875 317.078125 159.988281 312.46875 160.035156 309.527344 C 160.070312 307.0625 161.070312 304.824219 163.003906 302.867188 C 165.246094 307.023438 167.203125 310.417969 168.332031 311.945312 C 168.480469 312.148438 168.683594 312.269531 168.933594 312.308594 C 169.1875 312.34375 169.414062 312.289062 169.617188 312.136719 C 169.824219 311.984375 169.945312 311.785156 169.980469 311.53125 C 170.019531 311.28125 169.960938 311.054688 169.8125 310.847656 C 168.632812 309.253906 166.511719 305.535156 164.105469 301.039062 C 164.078125 300.972656 164.046875 300.910156 164.003906 300.847656 C 161.722656 296.574219 159.191406 291.621094 156.964844 287.117188 C 156.960938 287.105469 156.953125 287.09375 156.949219 287.085938 C 155.703125 284.566406 154.554688 282.191406 153.597656 280.15625 C 153.148438 279.199219 152.324219 276.8125 154.441406 275.402344 C 155.582031 274.640625 157.785156 274.855469 158.800781 276.269531 C 158.867188 276.359375 158.9375 276.453125 159.003906 276.554688 C 159.011719 276.5625 159.019531 276.574219 159.03125 276.585938 C 160.726562 278.976562 163.847656 283.773438 166.480469 287.824219 C 166.484375 287.828125 166.488281 287.835938 166.492188 287.84375 C 166.609375 288.019531 166.722656 288.195312 166.835938 288.371094 C 168.984375 291.671875 170.679688 294.28125 171.15625 294.914062 C 171.394531 295.226562 171.703125 295.339844 172.085938 295.257812 C 172.46875 295.171875 172.703125 294.941406 172.789062 294.558594 C 173.203125 292.707031 175.011719 291.230469 176.90625 291.199219 C 178.800781 291.167969 180.65625 292.574219 181.136719 294.410156 C 181.191406 294.621094 181.304688 294.789062 181.480469 294.917969 C 181.652344 295.046875 181.847656 295.109375 182.0625 295.097656 C 182.28125 295.089844 182.46875 295.015625 182.632812 294.871094 C 182.796875 294.730469 182.894531 294.550781 182.933594 294.335938 C 183.222656 292.691406 185.105469 291.695312 186.6875 291.800781 C 188.859375 291.941406 190.546875 293.578125 191.363281 294.539062 C 192.285156 295.632812 193.011719 296.867188 193.78125 298.175781 C 194.082031 298.683594 194.390625 299.207031 194.710938 299.71875 C 195.671875 301.257812 196.605469 302.835938 197.507812 304.363281 C 199.882812 308.382812 202.128906 312.179688 204.390625 314.417969 C 204.574219 314.585938 204.789062 314.667969 205.035156 314.660156 C 205.285156 314.65625 205.496094 314.566406 205.667969 314.390625 C 205.84375 314.210938 205.933594 314 205.9375 313.753906 C 205.9375 313.503906 205.855469 313.289062 205.683594 313.109375 C 203.589844 311.035156 201.40625 307.339844 199.089844 303.425781 Z M 160.90625 276.058594 C 163.699219 272.195312 163.382812 265.464844 163.164062 260.9375 C 163.132812 260.25 163.101562 259.605469 163.089844 259.066406 C 163.082031 258.816406 162.992188 258.605469 162.8125 258.429688 C 162.632812 258.253906 162.417969 258.167969 162.167969 258.167969 L 162.144531 258.167969 C 161.890625 258.171875 161.675781 258.269531 161.503906 258.453125 C 161.328125 258.636719 161.242188 258.855469 161.25 259.109375 C 161.261719 259.671875 161.292969 260.328125 161.328125 261.023438 C 161.507812 264.863281 161.800781 271.066406 159.710938 274.527344 C 157.949219 272.863281 155.105469 272.746094 153.417969 273.871094 C 152.523438 274.460938 151.886719 275.257812 151.507812 276.261719 C 148.738281 274.398438 148.820312 269.582031 148.917969 264.089844 C 148.941406 262.679688 148.964844 261.222656 148.941406 259.777344 C 148.9375 259.523438 148.84375 259.308594 148.660156 259.128906 C 148.476562 258.953125 148.257812 258.867188 148.003906 258.871094 C 147.75 258.875 147.535156 258.96875 147.355469 259.152344 C 147.179688 259.335938 147.09375 259.554688 147.101562 259.808594 C 147.125 261.222656 147.101562 262.664062 147.074219 264.058594 C 146.96875 270.261719 146.863281 276.132812 151.207031 278.214844 C 151.265625 279.171875 151.507812 280.082031 151.933594 280.945312 C 152.726562 282.632812 153.652344 284.554688 154.65625 286.597656 C 149.171875 286.699219 143.683594 286.792969 140.132812 286.769531 C 138.886719 286.761719 137.714844 286.765625 136.578125 286.769531 C 130.300781 286.789062 125.765625 286.800781 123.042969 284.582031 C 120.265625 282.320312 119.019531 277.433594 118.875 268.246094 C 118.695312 256.871094 119.449219 253.882812 123.355469 250.488281 C 126.785156 247.507812 132.703125 247.515625 139.558594 247.527344 C 141.191406 247.527344 142.882812 247.53125 144.632812 247.496094 C 145.605469 247.476562 146.617188 247.453125 147.65625 247.433594 C 155.660156 247.257812 165.625 247.039062 173.410156 247.519531 C 174.042969 247.554688 174.675781 247.585938 175.285156 247.617188 C 179.246094 247.8125 182.984375 248 185.625 250.160156 C 188.601562 252.601562 190.054688 257.378906 190.195312 265.191406 C 190.398438 276.375 189.566406 281.453125 187.128906 283.925781 C 184.628906 286.457031 180.058594 286.433594 172.492188 286.394531 C 171.726562 286.390625 170.933594 286.386719 170.109375 286.386719 C 169.34375 286.386719 168.550781 286.386719 167.746094 286.394531 C 165.351562 282.710938 162.613281 278.511719 160.90625 276.058594 Z M 171.558594 264.015625 C 170.332031 262.503906 169.0625 260.9375 167.625 259.214844 C 167.464844 259.019531 167.394531 258.796875 167.417969 258.542969 C 167.4375 258.289062 167.546875 258.082031 167.742188 257.917969 C 167.9375 257.757812 168.164062 257.6875 168.414062 257.707031 C 168.667969 257.730469 168.878906 257.839844 169.039062 258.035156 C 170.484375 259.765625 171.757812 261.335938 172.988281 262.855469 C 173.996094 264.101562 175.035156 265.382812 176.171875 266.753906 C 177.207031 265.371094 178.25 264.085938 179.261719 262.835938 C 180.488281 261.324219 181.753906 259.757812 182.992188 258.046875 C 183.140625 257.835938 183.339844 257.710938 183.589844 257.667969 C 183.84375 257.628906 184.074219 257.679688 184.28125 257.832031 C 184.488281 257.980469 184.613281 258.183594 184.652344 258.433594 C 184.691406 258.6875 184.636719 258.917969 184.484375 259.125 C 183.21875 260.878906 181.933594 262.464844 180.691406 263.996094 C 179.472656 265.5 178.214844 267.054688 176.988281 268.753906 C 177.113281 270.59375 177.152344 272.027344 177.1875 273.539062 C 177.214844 274.597656 177.242188 275.695312 177.300781 277.050781 C 177.3125 277.304688 177.230469 277.523438 177.058594 277.710938 C 176.890625 277.898438 176.675781 278 176.421875 278.011719 C 176.410156 278.011719 176.394531 278.011719 176.378906 278.011719 C 176.132812 278.011719 175.921875 277.925781 175.746094 277.753906 C 175.566406 277.585938 175.472656 277.378906 175.460938 277.132812 C 175.402344 275.757812 175.375 274.652344 175.347656 273.582031 C 175.308594 271.945312 175.273438 270.527344 175.128906 268.585938 C 175.125 268.519531 175.125 268.457031 175.136719 268.390625 C 173.84375 266.835938 172.683594 265.402344 171.558594 264.015625 Z M 141.304688 271.910156 C 140.886719 270.738281 140.179688 269.546875 137.828125 268.859375 C 139.066406 268.296875 140.058594 267.367188 140.859375 265.851562 C 141.632812 264.386719 141.625 262.359375 140.835938 260.691406 C 140.105469 259.136719 138.820312 258.101562 137.21875 257.769531 C 134.613281 257.234375 131.859375 257.308594 128.550781 258.003906 C 128.351562 258.046875 128.179688 258.148438 128.046875 258.304688 C 127.910156 258.460938 127.835938 258.640625 127.824219 258.847656 L 126.597656 277.796875 C 126.554688 278.410156 126.859375 278.714844 127.453125 278.773438 C 128.195312 278.824219 128.917969 278.898438 129.617188 278.972656 C 130.804688 279.113281 131.996094 279.195312 133.191406 279.214844 C 134.644531 279.234375 136.058594 279.011719 137.433594 278.550781 C 139.023438 278.011719 140.425781 276.808594 141.101562 275.410156 C 141.375 274.867188 141.527344 274.289062 141.5625 273.679688 C 141.597656 273.074219 141.511719 272.480469 141.304688 271.910156 Z M 129.613281 259.671875 C 132.363281 259.160156 134.675781 259.128906 136.847656 259.574219 C 138.152344 259.84375 138.832031 260.757812 139.171875 261.476562 C 139.710938 262.621094 139.734375 264.035156 139.230469 264.992188 C 137.730469 267.835938 135.59375 267.933594 129.640625 267.800781 L 129.089844 267.789062 Z M 139.445312 274.609375 C 138.984375 275.566406 137.960938 276.429688 136.84375 276.808594 C 134.464844 277.617188 132.304688 277.394531 129.804688 277.136719 C 129.375 277.09375 128.941406 277.050781 128.496094 277.011719 L 128.929688 270.261719 C 133.078125 269.960938 136.042969 270.128906 137.75 270.765625 C 139.023438 271.242188 139.328125 271.84375 139.570312 272.527344 C 139.832031 273.242188 139.789062 273.933594 139.445312 274.609375 Z M 139.445312 274.609375 " fill-opacity="1" fill-rule="nonzero"/></g><g fill="#000000" fill-opacity="1"><g transform="translate(196.814563, 278.012822)"><g><path d="M 6.589844 -27.175781 C 3.429688 -27.175781 1.699219 -25.476562 1.699219 -22.285156 L 1.699219 -14.269531 C 1.699219 -13.621094 2.003906 -13.214844 2.617188 -13.011719 L 10.667969 -10.359375 L 10.667969 -5.84375 C 10.667969 -4.925781 10.191406 -4.484375 9.308594 -4.484375 L 7.675781 -4.484375 C 6.828125 -4.484375 6.320312 -4.925781 6.320312 -5.84375 L 6.320312 -8.457031 C 6.320312 -8.832031 6.148438 -9.003906 5.773438 -9.003906 L 2.242188 -9.003906 C 1.902344 -9.003906 1.699219 -8.832031 1.699219 -8.457031 L 1.699219 -4.890625 C 1.699219 -1.699219 3.429688 0 6.589844 0 L 10.394531 0 C 13.589844 0 15.285156 -1.699219 15.285156 -4.890625 L 15.285156 -12.738281 C 15.285156 -13.382812 14.980469 -13.757812 14.402344 -13.996094 L 6.320312 -16.644531 L 6.320312 -21.332031 C 6.320312 -22.21875 6.828125 -22.691406 7.675781 -22.691406 L 9.308594 -22.691406 C 10.226562 -22.691406 10.667969 -22.21875 10.667969 -21.332031 L 10.667969 -18.683594 C 10.667969 -18.34375 10.871094 -18.140625 11.210938 -18.140625 L 14.742188 -18.140625 C 15.117188 -18.140625 15.285156 -18.34375 15.285156 -18.683594 L 15.285156 -22.285156 C 15.285156 -25.476562 13.589844 -27.175781 10.394531 -27.175781 Z M 6.589844 -27.175781 "/></g></g></g><g fill="#000000" fill-opacity="1"><g transform="translate(213.798744, 278.012822)"><g><path d="M 15.253906 -26.632812 C 15.253906 -26.972656 15.117188 -27.175781 14.710938 -27.175781 L 2.207031 -27.175781 C 1.902344 -27.175781 1.699219 -26.972656 1.699219 -26.632812 L 1.699219 -0.542969 C 1.699219 -0.203125 1.902344 0 2.207031 0 L 14.710938 0 C 15.117188 0 15.253906 -0.203125 15.253906 -0.542969 L 15.253906 -3.941406 C 15.253906 -4.3125 15.117188 -4.484375 14.710938 -4.484375 L 6.214844 -4.484375 L 6.214844 -11.347656 L 12.707031 -11.347656 C 13.042969 -11.347656 13.25 -11.550781 13.25 -11.921875 L 13.25 -15.285156 C 13.25 -15.660156 13.042969 -15.863281 12.707031 -15.863281 L 6.214844 -15.863281 L 6.214844 -22.660156 L 14.710938 -22.660156 C 15.117188 -22.660156 15.253906 -22.894531 15.253906 -23.234375 Z M 15.253906 -26.632812 "/></g></g></g><g fill="#000000" fill-opacity="1"><g transform="translate(230.748955, 278.012822)"><g><path d="M 6.320312 -4.484375 L 14.402344 -4.484375 C 14.777344 -4.484375 14.945312 -4.28125 14.945312 -3.941406 L 14.945312 -0.542969 C 14.945312 -0.167969 14.777344 0 14.402344 0 L 2.242188 0 C 1.902344 0 1.699219 -0.167969 1.699219 -0.542969 L 1.699219 -26.632812 C 1.699219 -26.972656 1.902344 -27.175781 2.242188 -27.175781 L 5.773438 -27.175781 C 6.148438 -27.175781 6.320312 -26.972656 6.320312 -26.632812 Z M 6.320312 -4.484375 "/></g></g></g><g fill="#000000" fill-opacity="1"><g transform="translate(247.393454, 278.012822)"><g><path d="M 6.320312 -4.484375 L 14.402344 -4.484375 C 14.777344 -4.484375 14.945312 -4.28125 14.945312 -3.941406 L 14.945312 -0.542969 C 14.945312 -0.167969 14.777344 0 14.402344 0 L 2.242188 0 C 1.902344 0 1.699219 -0.167969 1.699219 -0.542969 L 1.699219 -26.632812 C 1.699219 -26.972656 1.902344 -27.175781 2.242188 -27.175781 L 5.773438 -27.175781 C 6.148438 -27.175781 6.320312 -26.972656 6.320312 -26.632812 Z M 6.320312 -4.484375 "/></g></g></g><g fill="#000000" fill-opacity="1"><g transform="translate(197.171592, 294.670351)"><g><path d="M 6.640625 0 L 5.65625 0 L 4.84375 -2.484375 L 1.390625 -2.484375 L 0.59375 0 L -0.390625 0 L 2.5 -8.71875 L 3.75 -8.71875 Z M 4.578125 -3.296875 L 3.125 -7.796875 L 1.65625 -3.296875 Z M 4.578125 -3.296875 "/></g></g></g><g fill="#000000" fill-opacity="1"><g transform="translate(207.530116, 294.670351)"><g><path d="M 5.890625 0 L 4.765625 0 L 1.234375 -7.375 L 1.234375 0 L 0.328125 0 L 0.328125 -8.71875 L 1.609375 -8.71875 L 4.96875 -1.6875 L 4.96875 -8.71875 L 5.890625 -8.71875 Z M 5.890625 0 "/></g></g></g><g fill="#000000" fill-opacity="1"><g transform="translate(217.888639, 294.670351)"><g><path d="M 6.359375 -7.9375 L 5.640625 -7.9375 L 3.578125 -3.765625 L 3.578125 -0.78125 L 4.96875 -0.78125 L 4.96875 0 L 1.234375 0 L 1.234375 -0.78125 L 2.65625 -0.78125 L 2.65625 -3.765625 L 0.578125 -7.9375 L -0.140625 -7.9375 L -0.140625 -8.71875 L 2.328125 -8.71875 L 2.328125 -7.9375 L 1.609375 -7.9375 L 3.125 -4.640625 L 4.625 -7.9375 L 3.90625 -7.9375 L 3.90625 -8.71875 L 6.359375 -8.71875 Z M 6.359375 -7.9375 "/></g></g></g><g fill="#000000" fill-opacity="1"><g transform="translate(228.247163, 294.670351)"><g><path d="M 6.21875 -5.765625 L 5.4375 -5.765625 L 5.4375 -7.9375 L 3.578125 -7.9375 L 3.578125 -0.78125 L 4.96875 -0.78125 L 4.96875 0 L 1.234375 0 L 1.234375 -0.78125 L 2.65625 -0.78125 L 2.65625 -7.9375 L 0.78125 -7.9375 L 0.78125 -5.765625 L 0 -5.765625 L 0 -8.71875 L 6.21875 -8.71875 Z M 6.21875 -5.765625 "/></g></g></g><g fill="#000000" fill-opacity="1"><g transform="translate(238.605685, 294.670351)"><g><path d="M 5.890625 0 L 4.96875 0 L 4.96875 -4.03125 L 1.234375 -4.03125 L 1.234375 0 L 0.328125 0 L 0.328125 -8.71875 L 1.234375 -8.71875 L 1.234375 -4.8125 L 4.96875 -4.8125 L 4.96875 -8.71875 L 5.890625 -8.71875 Z M 5.890625 0 "/></g></g></g><g fill="#000000" fill-opacity="1"><g transform="translate(248.964207, 294.670351)"><g><path d="M 4.96875 0 L 1.234375 0 L 1.234375 -0.78125 L 2.65625 -0.78125 L 2.65625 -7.9375 L 1.234375 -7.9375 L 1.234375 -8.71875 L 4.96875 -8.71875 L 4.96875 -7.9375 L 3.578125 -7.9375 L 3.578125 -0.78125 L 4.96875 -0.78125 Z M 4.96875 0 "/></g></g></g><g fill="#000000" fill-opacity="1"><g transform="translate(259.322728, 294.670351)"><g><path d="M 5.890625 0 L 4.765625 0 L 1.234375 -7.375 L 1.234375 0 L 0.328125 0 L 0.328125 -8.71875 L 1.609375 -8.71875 L 4.96875 -1.6875 L 4.96875 -8.71875 L 5.890625 -8.71875 Z M 5.890625 0 "/></g></g></g><g fill="#000000" fill-opacity="1"><g transform="translate(269.68125, 294.670351)"><g><path d="M 6.5625 -4.328125 C 6.5625 -3.734375 6.5 -3.164062 6.375 -2.625 C 6.25 -2.09375 6.050781 -1.617188 5.78125 -1.203125 C 5.519531 -0.796875 5.175781 -0.46875 4.75 -0.21875 C 4.320312 0.03125 3.8125 0.15625 3.21875 0.15625 C 2.601562 0.15625 2.082031 0.03125 1.65625 -0.21875 C 1.238281 -0.46875 0.894531 -0.800781 0.625 -1.21875 C 0.351562 -1.632812 0.15625 -2.113281 0.03125 -2.65625 C -0.0820312 -3.195312 -0.140625 -3.757812 -0.140625 -4.34375 C -0.140625 -4.925781 -0.0820312 -5.488281 0.03125 -6.03125 C 0.15625 -6.570312 0.351562 -7.050781 0.625 -7.46875 C 0.894531 -7.894531 1.238281 -8.234375 1.65625 -8.484375 C 2.082031 -8.734375 2.601562 -8.859375 3.21875 -8.859375 C 3.75 -8.859375 4.207031 -8.757812 4.59375 -8.5625 C 4.976562 -8.375 5.257812 -8.085938 5.4375 -7.703125 L 5.4375 -8.71875 L 6.21875 -8.71875 L 6.21875 -5.859375 L 5.4375 -5.859375 C 5.4375 -6.171875 5.378906 -6.460938 5.265625 -6.734375 C 5.148438 -7.015625 4.988281 -7.25 4.78125 -7.4375 C 4.582031 -7.632812 4.347656 -7.789062 4.078125 -7.90625 C 3.804688 -8.019531 3.519531 -8.078125 3.21875 -8.078125 C 2.738281 -8.078125 2.34375 -7.960938 2.03125 -7.734375 C 1.726562 -7.515625 1.484375 -7.222656 1.296875 -6.859375 C 1.109375 -6.503906 0.972656 -6.101562 0.890625 -5.65625 C 0.816406 -5.21875 0.78125 -4.78125 0.78125 -4.34375 C 0.78125 -3.90625 0.816406 -3.460938 0.890625 -3.015625 C 0.972656 -2.578125 1.109375 -2.179688 1.296875 -1.828125 C 1.484375 -1.472656 1.726562 -1.179688 2.03125 -0.953125 C 2.34375 -0.734375 2.738281 -0.625 3.21875 -0.625 C 3.914062 -0.625 4.46875 -0.894531 4.875 -1.4375 C 5.28125 -1.976562 5.519531 -2.742188 5.59375 -3.734375 L 3.671875 -3.734375 L 3.671875 -4.515625 L 6.5625 -4.515625 Z M 6.5625 -4.328125 "/></g></g></g></svg>